<svg width="25" height="34" viewBox="0 0 25 34" fill="none" xmlns="http://www.w3.org/2000/svg">
<path d="M0 28.188V0L17.1053 0.290598L14.4737 5.23077L4.73684 5.52137V14.2393H12.1053L9.21053 16.8547L12.1053 19.7607H4.73684V28.188H0Z" fill="url(#paint0_linear_13_14617)"/>
<path d="M16.0526 12.2051C15.2105 15.2274 12.8947 16.5641 11.8421 16.8547C14.5789 18.4821 15.7895 20.8262 16.0526 21.7949C15.9649 23.3447 15.8421 27.0256 16.0526 29.3504C16.2632 31.6752 19.2982 33.4188 20.7895 34H25V28.188C24.2105 28.0912 22.4211 27.8974 21.5789 27.8974C22.4211 21.1556 20.3509 17.7265 19.2105 16.8547C20.3509 14.8205 22.2632 9.93846 20.7895 6.68376C21.2105 6.91624 22.0175 5.81197 22.3684 5.23077H25V0.581197H20.5263C19.2632 2.44103 17.193 4.26211 16.3158 4.94017C16.5789 6.10256 16.8947 9.18291 16.0526 12.2051Z" fill="url(#paint1_linear_13_14617)"/>
<defs>
<linearGradient id="paint0_linear_13_14617" x1="0" y1="16.8547" x2="26.5789" y2="16.8547" gradientUnits="userSpaceOnUse">
<stop stop-color="#979797"/>
<stop offset="1" stop-color="#404040"/>
</linearGradient>
<linearGradient id="paint1_linear_13_14617" x1="0" y1="16.8547" x2="26.5789" y2="16.8547" gradientUnits="userSpaceOnUse">
<stop stop-color="#979797"/>
<stop offset="1" stop-color="#404040"/>
</linearGradient>
</defs>
</svg>
